<svg width="40" height="40" viewBox="0 0 40 40" fill="none" xmlns="http://www.w3.org/2000/svg">
<path d="M20.0042 30.1053C14.4307 30.1053 9.89703 25.5727 9.89703 20.0004C9.89703 14.4281 14.4307 9.89551 20.0042 9.89551C25.5778 9.89551 30.1114 14.4281 30.1114 20.0004C30.1114 25.5727 25.5778 30.1053 20.0042 30.1053ZM20.0042 11.5918C15.3611 11.5918 11.5846 15.3675 11.5846 20.0095C11.5846 24.6515 15.3611 28.4272 20.0042 28.4272C24.6473 28.4272 28.4238 24.6515 28.4238 20.0095C28.4238 15.3675 24.6382 11.5918 20.0042 11.5918Z" fill="url(#paint0_linear_8_4271)"/>
<path d="M31.3704 10.8069C32.5694 10.8069 33.5414 9.83512 33.5414 8.63636C33.5414 7.43761 32.5694 6.46582 31.3704 6.46582C30.1713 6.46582 29.1993 7.43761 29.1993 8.63636C29.1993 9.83512 30.1713 10.8069 31.3704 10.8069Z" fill="url(#paint1_linear_8_4271)"/>
<path d="M0 0V40H15.8814V38.3037H1.68757V1.69631H38.3124V38.3037H24.1186V40H40V0H0Z" fill="url(#paint2_linear_8_4271)"/>
<defs>
<linearGradient id="paint0_linear_8_4271" x1="9.89703" y1="9.89551" x2="30.7866" y2="10.6193" gradientUnits="userSpaceOnUse">
<stop stop-color="#BC000B"/>
<stop offset="1" stop-color="#BD6600"/>
</linearGradient>
<linearGradient id="paint1_linear_8_4271" x1="29.1993" y1="6.46582" x2="33.6864" y2="6.62129" gradientUnits="userSpaceOnUse">
<stop stop-color="#BC000B"/>
<stop offset="1" stop-color="#BD6600"/>
</linearGradient>
<linearGradient id="paint2_linear_8_4271" x1="0" y1="0" x2="41.336" y2="1.43191" gradientUnits="userSpaceOnUse">
<stop stop-color="#BC000B"/>
<stop offset="1" stop-color="#BD6600"/>
</linearGradient>
</defs>
</svg>
