<svg width="16" height="16" viewBox="0 0 16 16" fill="none" xmlns="http://www.w3.org/2000/svg">
<path d="M14.4225 0.0454904C14.0533 -0.0342977 13.6619 -0.0104541 13.2954 0.127527L1.29504 4.64541C0.507122 4.94213 -0.0146047 5.70978 0.000295774 6.55173C0.0151842 7.39379 0.563534 8.14453 1.36164 8.41325L6.01609 9.97975L7.57274 14.6343C7.83984 15.4335 8.58757 15.9835 9.4302 15.9996C10.2727 16.016 11.0427 15.4948 11.3405 14.7066L15.8716 2.70679C16.1486 1.97374 15.9686 1.13929 15.4146 0.585256C15.1386 0.308258 14.7915 0.125275 14.4225 0.0454904ZM14.0004 1.99871L9.4694 13.9995L7.75644 8.87375C7.70748 8.72715 7.62521 8.5939 7.51609 8.48444C7.40697 8.37499 7.27397 8.29232 7.12752 8.24291L2.00036 6.5162L14.0004 1.99871Z" fill="white"/>
</svg>
