<svg width="19" height="19" viewBox="0 0 19 19" fill="none" xmlns="http://www.w3.org/2000/svg">
<path d="M13.2071 11.7929C12.8166 11.4024 12.1834 11.4024 11.7929 11.7929C11.4024 12.1834 11.4024 12.8166 11.7929 13.2071L13.2071 11.7929ZM16.7929 18.2071C17.1834 18.5976 17.8166 18.5976 18.2071 18.2071C18.5976 17.8166 18.5976 17.1834 18.2071 16.7929L16.7929 18.2071ZM7.91663 13.167C5.01713 13.167 2.66663 10.8165 2.66663 7.91699H0.666626C0.666626 11.9211 3.91256 15.167 7.91663 15.167V13.167ZM2.66663 7.91699C2.66663 5.0175 5.01713 2.66699 7.91663 2.66699V0.666992C3.91256 0.666992 0.666626 3.91293 0.666626 7.91699H2.66663ZM7.91663 2.66699C10.8161 2.66699 13.1666 5.0175 13.1666 7.91699H15.1666C15.1666 3.91293 11.9207 0.666992 7.91663 0.666992V2.66699ZM13.1666 7.91699C13.1666 9.30938 12.6135 10.6447 11.6289 11.6293L13.0431 13.0435C14.4028 11.6839 15.1666 9.83981 15.1666 7.91699H13.1666ZM11.6289 11.6293C10.6444 12.6139 9.30901 13.167 7.91663 13.167V15.167C9.83945 15.167 11.6835 14.4032 13.0431 13.0435L11.6289 11.6293ZM11.7929 13.2071L16.7929 18.2071L18.2071 16.7929L13.2071 11.7929L11.7929 13.2071Z" fill="white"/>
</svg>
