<svg width="40" height="40" viewBox="0 0 40 40" fill="none" xmlns="http://www.w3.org/2000/svg">
<path d="M33.9068 29.6764H30.5956C29.3367 29.6764 28.7164 28.9924 27.6765 27.8615C27.2751 27.4238 26.7826 26.8857 26.1258 26.2382C24.4108 24.6239 23.6993 24.3777 23.4165 24.3777C23.38 24.7151 23.3892 25.3718 23.3983 26.1105C23.3983 26.53 23.4074 27.0134 23.4074 27.5697C23.4074 29.421 21.8658 29.6764 20.1965 29.6764C16.2466 29.6764 12.2056 27.3234 9.40513 23.3745C5.37321 17.8296 4.01404 13.3152 4.01404 12.1023C4.01404 10.9988 4.75292 10.333 5.99351 10.333H9.30479C10.7369 10.333 11.2478 11.2085 11.5944 12.157C13.0083 16.1971 15.0699 19.2888 16.0368 20.1005C16.0368 20.0366 16.0368 19.9728 16.0368 19.8907V15.1027C15.9821 14.0631 15.6355 13.6527 15.3071 13.2514C15.0425 12.9322 14.7233 12.54 14.7233 11.9381C14.7233 11.0626 15.4804 10.3512 16.4108 10.3512H21.6195C22.2854 10.3512 23.3983 10.6157 23.3983 12.3941V18.7416C23.6264 18.5592 23.9 18.2947 24.0277 18.167C26.2535 15.732 27.8954 11.8378 27.9046 11.8013C28.3059 10.8528 29.0722 10.3604 30.1212 10.3604H33.4325C34.1805 10.3604 34.7278 10.5884 35.0562 11.0261C35.2752 11.318 35.4849 11.8378 35.2478 12.6403V12.6495C35.2204 12.7498 35.1931 12.8501 35.1566 12.9595L35.1474 12.9869C34.3994 15.1392 31.2706 19.5259 30.6868 20.3284C30.6412 20.4014 30.5499 20.5473 30.5135 20.6294C30.5317 20.6385 30.5682 20.7024 30.6412 20.7936C30.705 20.8665 30.8601 21.0216 31.079 21.2404C33.1588 23.3289 35.3481 25.6636 35.8589 27.2049C36.1235 28.0804 35.8954 28.6367 35.6583 28.9559C35.4028 29.2751 34.9011 29.6764 33.9068 29.6764ZM23.4257 22.6905C24.1281 22.6905 25.1315 22.9641 27.3025 25.0252C28.0049 25.7092 28.5157 26.2746 28.9262 26.7215C29.8932 27.7794 30.1212 27.9801 30.5956 27.9801H33.9068C34.1714 27.9801 34.2808 27.9345 34.3082 27.9162C34.29 27.9071 34.29 27.8341 34.2444 27.6882C33.8065 26.3385 30.851 23.3836 29.884 22.4078C29.4918 22.0156 29.3823 21.9062 29.3094 21.8059C28.5066 20.7844 28.8259 20.0822 29.2637 19.3891L29.3276 19.2979C30.3949 17.8296 33.3139 13.5523 33.6149 12.1752L33.6514 12.0202C33.6058 12.0111 33.5328 12.0111 33.4416 12.0111H30.1303C29.7198 12.0111 29.583 12.1479 29.4644 12.4215C29.4006 12.5856 27.6948 16.6166 25.2409 19.307C24.4656 20.064 23.8818 20.5838 23.0699 20.5838C22.3858 20.5838 21.6925 19.9728 21.6925 18.8054V12.3668C21.6925 12.1844 21.6742 12.0749 21.6651 12.0202C21.6469 12.0202 21.6286 12.0202 21.6013 12.0202H16.4838C16.5203 12.0658 16.5659 12.1205 16.6024 12.1661C17.0038 12.6586 17.6241 13.4064 17.7153 15.048V19.8816C17.7153 20.4561 17.7153 21.97 16.2558 21.97C14.2672 21.97 11.339 16.5984 9.97982 12.7224C9.72441 12.0293 9.64231 12.0293 9.28656 12.0293H5.97526C5.82931 12.0293 5.73809 12.0476 5.69248 12.0567C5.69248 12.0658 5.69248 12.084 5.69248 12.1023C5.69248 12.613 6.62293 16.6987 10.7643 22.3896C13.2546 25.9007 16.7666 27.9892 20.1782 27.9892C21.3641 27.9892 21.6469 27.825 21.6925 27.7977C21.6834 27.7977 21.7016 27.7338 21.7016 27.5788C21.7016 27.0225 21.7016 26.5482 21.6925 26.1378C21.6742 24.3047 21.6742 23.6207 22.1668 23.11C22.5956 22.6905 23.152 22.6905 23.4257 22.6905Z" fill="url(#paint0_linear_8_4270)"/>
<path d="M40 8.63657V0H0V40H40V17.1728H38.3124V38.3037H1.68758V1.69631H38.3124V8.63657H40Z" fill="url(#paint1_linear_8_4270)"/>
<defs>
<linearGradient id="paint0_linear_8_4270" x1="4.01404" y1="10.333" x2="36.9767" y2="12.2198" gradientUnits="userSpaceOnUse">
<stop stop-color="#BC000B"/>
<stop offset="1" stop-color="#BD6600"/>
</linearGradient>
<linearGradient id="paint1_linear_8_4270" x1="0" y1="0" x2="41.336" y2="1.43191" gradientUnits="userSpaceOnUse">
<stop stop-color="#BC000B"/>
<stop offset="1" stop-color="#BD6600"/>
</linearGradient>
</defs>
</svg>
