<svg width="40" height="40" viewBox="0 0 40 40" fill="none" xmlns="http://www.w3.org/2000/svg">
<path d="M39.1519 39.9909H25.9097C25.4446 39.9909 25.0616 39.6078 25.0616 39.1427V25.4993C25.0616 25.0342 25.4446 24.6512 25.9097 24.6512H29.959L30.4788 20.9211H25.9097C25.4446 20.9211 25.0616 20.5381 25.0616 20.073V16.3338C25.0616 14.8381 25.4537 12.85 28.8372 12.85H31.1263V9.6124C30.269 9.54856 28.9102 9.4756 27.4145 9.4756C23.1829 9.4756 20.6566 11.8377 20.6566 15.7957V20.073C20.6566 20.5381 20.2736 20.9211 19.8085 20.9211H15.668V24.6512H19.7994C20.2645 24.6512 20.6475 25.0342 20.6475 25.4993V39.1518C20.6475 39.617 20.2645 40 19.7994 40H0.848154C0.383037 40 0 39.617 0 39.1518V0.848153C0 0.383037 0.383037 0 0.848154 0H39.1519C39.617 0 40 0.383037 40 0.848153V39.1518C40 39.6078 39.6261 39.9909 39.1519 39.9909ZM26.7579 38.2946H38.3128V1.68719H1.70543V38.2946H18.9603V26.3383H14.8199C14.3548 26.3383 13.9717 25.9553 13.9717 25.4902V20.0638C13.9717 19.5987 14.3548 19.2157 14.8199 19.2157H18.9603V15.7866C18.9603 10.8436 22.1979 7.77018 27.4145 7.77018C29.7401 7.77018 31.6097 7.93434 32.0748 7.98906C32.5034 8.04378 32.8226 8.39945 32.8226 8.82809V13.6799C32.8226 14.145 32.4396 14.528 31.9745 14.528H28.8463C26.8673 14.528 26.7579 15.212 26.7579 16.3247V19.2157H31.4546C31.7009 19.2157 31.9289 19.3251 32.093 19.5075C32.2572 19.6899 32.3301 19.9362 32.2937 20.1824L31.5367 25.6088C31.482 26.0283 31.1172 26.3383 30.6977 26.3383H26.767V38.2946H26.7579Z" fill="url(#paint0_linear_8_4272)"/>
<defs>
<linearGradient id="paint0_linear_8_4272" x1="0" y1="0" x2="41.336" y2="1.43191" gradientUnits="userSpaceOnUse">
<stop stop-color="#BC000B"/>
<stop offset="1" stop-color="#BD6600"/>
</linearGradient>
</defs>
</svg>
