<svg width="100" height="80" viewBox="0 0 100 80" fill="none" xmlns="http://www.w3.org/2000/svg">
<path fill-rule="evenodd" clip-rule="evenodd" d="M0 0.708119C9.87424 0.708119 19.7668 0.669516 29.639 0.708119C32.3838 0.718277 34.952 1.01288 36.7561 3.32906C37.6826 4.51762 37.7456 3.43064 38.8305 2.44728C41.2666 0.24082 45.2854 0.708119 48.4244 0.708119H100V79.0397C90.3716 79.0397 80.727 79.0925 71.1047 79.0742C67.5796 79.0681 63.7518 79.1819 60.2674 79.0579C57.7582 78.9706 56.7769 78.6557 54.739 77.4651C53.8329 76.9348 53.7089 77.3269 52.7967 77.8389C50.0091 79.4074 46.0087 79.0234 42.8493 79.0234C28.7064 79.0234 14.5635 79.0234 0.422601 79.0234H0V0.708119Z" fill="#1D1D1B"/>
<path fill-rule="evenodd" clip-rule="evenodd" d="M7.54382 73.2432V60.1243H15.1771C17.1986 60.1243 18.6859 60.4209 19.6428 61.0142C20.5998 61.6074 21.0772 62.5278 21.0772 63.7753C21.0772 64.5128 20.872 65.1427 20.4657 65.6668C20.0593 66.1931 19.4254 66.6339 18.566 66.9895C19.2649 67.2089 19.7606 67.5076 20.0492 67.8835C20.3377 68.2614 20.5043 68.9237 20.5469 69.8746C20.5693 70.1407 20.5896 70.5003 20.6119 70.9514C20.6627 72.0079 20.8822 72.6215 21.2723 72.7881V73.2432H16.9955C16.7862 72.7799 16.6683 72.144 16.6379 71.3374C16.6094 70.5308 16.579 70.0208 16.5505 69.8136C16.4855 69.3036 16.2762 68.9298 15.9227 68.6921C15.5692 68.4523 15.0389 68.3345 14.3319 68.3345H11.6053V73.2432H7.54382ZM11.6053 65.744H14.6468C15.4696 65.744 16.0751 65.6201 16.4591 65.3702C16.8451 65.1203 17.0381 64.7221 17.0381 64.1755C17.0381 63.6961 16.8512 63.3364 16.4753 63.1028C16.1015 62.8691 15.5265 62.7513 14.7545 62.7513H11.6053V65.744Z" fill="#E20613"/>
<path fill-rule="evenodd" clip-rule="evenodd" d="M23.7307 60.1243H27.7474V68.3183C27.7474 69.2224 27.9546 69.8644 28.3711 70.2464C28.7856 70.6304 29.4744 70.8193 30.4333 70.8193C31.3781 70.8193 32.0567 70.6304 32.4691 70.2464C32.8816 69.8644 33.0868 69.2224 33.0868 68.3183V60.1243H37.1482V67.918C37.1482 69.0151 37.0182 69.8908 36.7561 70.545C36.4981 71.1993 36.0674 71.7499 35.468 72.2009C34.8382 72.6702 34.1088 73.0217 33.2757 73.2554C32.4407 73.489 31.502 73.6069 30.4557 73.6069C29.4094 73.6069 28.4687 73.489 27.6356 73.2554C26.8026 73.0197 26.0712 72.6682 25.4434 72.2009C24.8379 71.7438 24.4011 71.1871 24.1329 70.5308C23.8668 69.8746 23.7327 69.005 23.7327 67.918V60.1243H23.7307Z" fill="#E20613"/>
<path fill-rule="evenodd" clip-rule="evenodd" d="M39.4096 68.8892H43.3288C43.3552 69.6369 43.6234 70.1996 44.1293 70.5755C44.6352 70.9514 45.3748 71.1403 46.35 71.1403C47.181 71.1403 47.821 71.0286 48.2781 70.801C48.7332 70.5776 48.9587 70.2586 48.9587 69.8482C48.9587 69.6409 48.9059 69.456 48.7982 69.2915C48.6905 69.1269 48.5382 69.003 48.3431 68.9197C48.0465 68.7896 47.3212 68.5844 46.1651 68.3061C45.0111 68.0277 44.0358 67.7575 43.2435 67.4954C42.0955 67.1216 41.2239 66.6279 40.6266 66.0122C40.0333 65.3987 39.7347 64.6815 39.7347 63.8606C39.7347 62.607 40.3076 61.6115 41.4515 60.874C42.5953 60.1344 44.1456 59.7646 46.1021 59.7646C48.0201 59.7646 49.5439 60.1527 50.6694 60.9309C51.795 61.709 52.3578 62.7615 52.3578 64.0841H48.5138C48.4264 63.4726 48.1664 63.0215 47.7295 62.731C47.2907 62.4404 46.6629 62.2942 45.84 62.2942C45.1817 62.2942 44.6494 62.4059 44.237 62.6294C43.8266 62.8529 43.6193 63.1353 43.6193 63.4807C43.6193 64.0618 44.5966 64.6103 46.5532 65.1284C46.9067 65.2219 47.1769 65.293 47.3638 65.3418L47.5264 65.3844C49.5459 65.9249 50.8096 66.3617 51.3155 66.6949C51.8275 67.0383 52.2197 67.4446 52.4858 67.9099C52.754 68.3772 52.8861 68.8953 52.8861 69.4642C52.8861 70.7685 52.2786 71.7864 51.0636 72.5138C49.8466 73.2391 48.142 73.6028 45.9477 73.6028C43.8774 73.6028 42.2987 73.2147 41.2158 72.4305C40.1349 71.6564 39.5315 70.4739 39.4096 68.8892Z" fill="#E20613"/>
<path fill-rule="evenodd" clip-rule="evenodd" d="M54.9442 68.8892H58.8634C58.8919 69.6369 59.158 70.1996 59.6639 70.5755C60.1698 70.9514 60.9094 71.1403 61.8826 71.1403C62.7136 71.1403 63.3556 71.0286 63.8107 70.801C64.2658 70.5776 64.4934 70.2586 64.4934 69.8482C64.4934 69.6409 64.4385 69.456 64.3308 69.2915C64.2211 69.1269 64.0708 69.003 63.8757 68.9197C63.5791 68.7896 62.8538 68.5844 61.6997 68.3061C60.5437 68.0277 59.5705 67.7575 58.7761 67.4954C57.6281 67.1216 56.7565 66.6279 56.1612 66.0122C55.5659 65.3987 55.2673 64.6815 55.2673 63.8606C55.2673 62.607 55.8402 61.6115 56.9841 60.874C58.1279 60.1344 59.6782 59.7646 61.6347 59.7646C63.5547 59.7646 65.0785 60.1527 66.2041 60.9309C67.3297 61.709 67.8925 62.7615 67.8925 64.0841H64.0464C63.9611 63.4726 63.699 63.0215 63.2621 62.731C62.8253 62.4404 62.1955 62.2942 61.3726 62.2942C60.7164 62.2942 60.182 62.4059 59.7696 62.6294C59.3592 62.8529 59.1519 63.1353 59.1519 63.4807C59.1519 64.0618 60.1312 64.6103 62.0858 65.1284C62.4393 65.2219 62.7095 65.293 62.8985 65.3418L63.059 65.3844C65.0805 65.9249 66.3423 66.3617 66.8482 66.6949C67.3602 67.0383 67.7523 67.4446 68.0184 67.9099C68.2866 68.3772 68.4207 68.8953 68.4207 69.4642C68.4207 70.7685 67.8132 71.7864 66.5962 72.5138C65.3792 73.2391 63.6746 73.6028 61.4803 73.6028C59.41 73.6028 57.8333 73.2147 56.7504 72.4305C55.6716 71.6564 55.0681 70.4739 54.9442 68.8892Z" fill="#E20613"/>
<path d="M75.0076 60.1243H70.936V73.2432H75.0076V60.1243Z" fill="#E20613"/>
<path fill-rule="evenodd" clip-rule="evenodd" d="M82.4112 60.1243H86.8729L92.5029 73.2432H88.1184L87.1452 70.8376H81.818L80.9098 73.2432H76.6777L82.4112 60.1243ZM82.7932 68.1232H86.2776L84.5039 63.5965L82.7932 68.1232Z" fill="#E20613"/>
<path fill-rule="evenodd" clip-rule="evenodd" d="M36.104 44.878C36.104 48.653 35.2181 51.2333 33.4464 52.625C31.6748 54.0127 28.0847 54.7096 22.6762 54.7096H7.43617V7.45752H22.1358C27.5463 7.45752 31.1445 8.16863 32.9385 9.58881C34.7305 11.009 35.6285 13.5974 35.6285 17.3521V21.4887C35.6285 24.0974 35.0536 26.0662 33.9097 27.3909C32.7638 28.7156 30.8438 29.6116 28.1497 30.0789C30.8215 30.2048 32.8146 31.05 34.1311 32.6084C35.4457 34.1667 36.104 36.4727 36.104 39.5305V44.878ZM18.3181 26.8037H21.3718C22.729 26.8037 23.6311 26.5701 24.0761 26.1028C24.521 25.6355 24.7445 24.7456 24.7445 23.429V19.1989C24.7445 17.8844 24.521 16.9884 24.0761 16.5109C23.6311 16.0335 22.729 15.7958 21.3718 15.7958H18.3181V26.8037ZM18.3181 34.122V46.4364H21.6278C22.985 46.4364 23.8912 46.1966 24.3483 45.7192C24.8034 45.2437 25.031 44.3477 25.031 43.0312V37.5577C25.031 36.2432 24.7974 35.3411 24.3321 34.8534C23.8648 34.3658 22.9627 34.122 21.6278 34.122H18.3181Z" fill="white"/>
<path fill-rule="evenodd" clip-rule="evenodd" d="M50.1981 38.927V43.5086C50.1981 44.7398 50.4419 45.6094 50.9295 46.1173C51.4192 46.6273 52.2461 46.8813 53.4123 46.8813C54.6842 46.8813 55.5456 46.6375 55.9906 46.1498C56.4355 45.6602 56.659 44.7398 56.659 43.3826V40.0404C56.659 39.0205 56.596 38.2687 56.468 37.7811C56.3421 37.2935 56.1287 36.8587 55.8321 36.4767C55.1088 35.6072 53.4468 34.8879 50.8381 34.313C49.6495 34.059 48.7271 33.8375 48.0709 33.6445C45.0151 32.7749 42.9143 31.56 41.7705 30.0016C40.6246 28.4433 40.0516 25.9869 40.0516 22.6345V18.2744C40.0516 14.0322 40.8745 11.074 42.5181 9.39778C44.1618 7.7216 47.0103 6.88452 51.0616 6.88452H54.3063C56.852 6.88452 58.9406 7.10192 60.5762 7.53671C62.2097 7.9715 63.4917 8.66635 64.4243 9.62127C65.1659 10.3629 65.686 11.3076 65.9826 12.4535C66.2793 13.5994 66.4276 15.4341 66.4276 17.9595V21.6187H56.661V18.6564C56.661 17.1712 56.464 16.1858 56.0718 15.6982C55.6797 15.2106 54.8792 14.9668 53.6703 14.9668C52.5021 14.9668 51.7138 15.1943 51.2993 15.6515C50.8869 16.1086 50.6796 16.9619 50.6796 18.2114V21.2672C50.6796 23.5793 52.6504 25.2331 56.5981 26.2307C57.7216 26.5294 58.6135 26.7711 59.2698 26.9642C62.3011 27.8114 64.3877 29 65.5214 30.5278C66.6572 32.0537 67.2261 34.4735 67.2261 37.7811V44.1445C67.2261 48.0902 66.2874 50.9325 64.4081 52.6717C62.5307 54.4109 59.4709 55.2805 55.2287 55.2805H52.3009C47.634 55.2805 44.4259 54.4861 42.6766 52.8932C40.9253 51.3023 40.0516 48.3665 40.0516 44.0795V38.925H50.1981V38.927Z" fill="white"/>
<path fill-rule="evenodd" clip-rule="evenodd" d="M70.6882 54.7076V7.45752H91.4667V15.9217H81.6981V26.3588H90.8613V34.504H81.6981V46.2434H92.3871V54.7076H70.6882Z" fill="white"/>
</svg>
