<svg width="40" height="40" viewBox="0 0 40 40" fill="none" xmlns="http://www.w3.org/2000/svg">
<path d="M15.2797 30.1046C14.8692 30.1046 14.4678 29.9952 14.0938 29.7854C13.355 29.3568 12.908 28.5907 12.908 27.7334V12.266C12.908 11.4088 13.3458 10.6427 14.0938 10.2141C14.8327 9.78542 15.7176 9.78542 16.4564 10.2141L29.8932 17.9478C30.632 18.3764 31.079 19.1425 31.079 19.9997C31.079 20.857 30.632 21.6231 29.8932 22.0517L16.4656 29.7854C16.0916 30.0043 15.6902 30.1046 15.2797 30.1046ZM15.6172 28.3171L16.0368 29.0467L15.6172 28.3171L29.0539 20.5834C29.355 20.4101 29.3915 20.1183 29.3915 19.9997C29.3915 19.8812 29.355 19.5893 29.0539 19.4161L15.6172 11.6824C15.3162 11.5091 15.0425 11.6276 14.9422 11.6824C14.8419 11.7371 14.6047 11.9195 14.6047 12.266V27.7426C14.6047 28.0982 14.8419 28.2715 14.9422 28.3262C15.0425 28.3809 15.3162 28.4995 15.6172 28.3171Z" fill="url(#paint0_linear_8_4273)"/>
<path d="M31.8723 0V1.69631H38.3124V38.3037H1.68757V1.69631H23.626V0H0V40H40V0H31.8723Z" fill="url(#paint1_linear_8_4273)"/>
<defs>
<linearGradient id="paint0_linear_8_4273" x1="12.908" y1="9.89258" x2="31.6903" y2="10.4775" gradientUnits="userSpaceOnUse">
<stop stop-color="#BC000B"/>
<stop offset="1" stop-color="#BD6600"/>
</linearGradient>
<linearGradient id="paint1_linear_8_4273" x1="0" y1="0" x2="41.336" y2="1.43191" gradientUnits="userSpaceOnUse">
<stop stop-color="#BC000B"/>
<stop offset="1" stop-color="#BD6600"/>
</linearGradient>
</defs>
</svg>
